<?xml version="1.0" encoding="UTF-8"?> <svg xmlns="http://www.w3.org/2000/svg" width="74" height="74" viewBox="0 0 74 74"><g transform="translate(-627 -3246.523)"><g transform="translate(-727.892 1312)" opacity="0.06"><g transform="translate(1354.57 1934.202)"><rect width="74" height="74" rx="37" transform="translate(0.322 0.322)" fill="#7525ff"></rect></g></g><g transform="translate(643.116 3262.839)"><g transform="translate(2 2)"><path d="M15,18h1.246v1.246H15Z" transform="translate(-6.903 -8.035)" fill="#7525ff" stroke="#7525ff" stroke-width="0.3"></path><path d="M21,18h1.246v1.246H21Z" transform="translate(-9.166 -8.035)" fill="#7525ff" stroke="#7525ff" stroke-width="0.3"></path><path d="M39.743,24.121A1.868,1.868,0,0,0,37.9,21.948H27.872a2.483,2.483,0,0,0-2.454,2.08l-1.109,6.639H21.743l-1.8-4.951a4.411,4.411,0,0,0-2.323-2.491l-3.787-1.682v-.548a5.6,5.6,0,0,0,3.737-5.275v-8.1A.623.623,0,0,0,16.948,7H9.474A3.114,3.114,0,0,0,6.36,10.114v2.522a2.169,2.169,0,0,0,.137,4.31,5.673,5.673,0,0,0,2.354,3.432v1.134L5.693,22.664A5.6,5.6,0,0,0,2,27.927V31.29a3.067,3.067,0,0,0,.642,1.868H2.623A.623.623,0,0,0,2,33.781v2.491a.623.623,0,0,0,.623.623H3.868v3.737a.623.623,0,0,0,.623.623H36.878a.623.623,0,0,0,.623-.623V36.9h1.246a.623.623,0,0,0,.623-.623V33.781a.623.623,0,0,0-.623-.623H38.2a1.321,1.321,0,0,0,.081-.318ZM6.36,15.663a.93.93,0,0,1,0-1.756Zm20.285,8.57a1.239,1.239,0,0,1,1.227-1.04h.174l-1.663,9.965H25.156ZM24.1,31.913l-.212,1.246H19.439a.623.623,0,0,1-.623-.623v-.623Zm-16.5-21.8A1.874,1.874,0,0,1,9.474,8.246h6.851v2c-.367.056-.7.125-1.028.187a12.806,12.806,0,0,1-2.709.305,3.835,3.835,0,0,1-1.65-.274,5.116,5.116,0,0,0-2.086-.349.623.623,0,0,0-.623.623v1.246a.623.623,0,0,1-.623.623Zm0,5.605V13.851a1.874,1.874,0,0,0,1.868-1.868v-.6a3.252,3.252,0,0,1,1.028.249,5.116,5.116,0,0,0,2.086.349,13.912,13.912,0,0,0,2.946-.33c.255-.05.517-.1.791-.149v4.216a4.36,4.36,0,1,1-8.719,0Zm4.983,5.568v.66a1.246,1.246,0,1,1-2.491,0v-.953a5.484,5.484,0,0,0,1.868.33,5.145,5.145,0,0,0,.623-.037ZM3.246,27.927a4.352,4.352,0,0,1,2.871-4.092l2.89-1.053a2.479,2.479,0,0,0,4.659.05l3.444,1.532a3.118,3.118,0,0,1,1.663,1.781l1.644,4.522h-2.18L16.9,27.323a.64.64,0,0,0-.592-.392.623.623,0,0,0-.623.623v5.605H13.211a3.1,3.1,0,0,0-1.576-2.691l-.3-2.367-1.233.149.224,1.819c-.075-.006-.149-.025-.23-.025H6.36V26.93H5.114v3.737a.623.623,0,0,0,.623.623H8.851v1.868H5.114A1.874,1.874,0,0,1,3.246,31.29Zm14.437,5.232h-.747v-2.4l.635,1.594v.181a1.868,1.868,0,0,0,.112.623Zm-5.717,0H10.1V31.29a1.874,1.874,0,0,1,1.868,1.868Zm24.29,6.851H5.114V36.9H36.255Zm1.868-4.36H3.246V34.4H38.124Zm-1.065-3.014a.616.616,0,0,1-.61.523h-8.8l1.663-9.965H37.9a.623.623,0,0,1,.617.722Z" transform="translate(-2 -3.886)" fill="#7525ff" stroke="#7525ff" stroke-width="0.3"></path><path d="M50.868,38a1.868,1.868,0,1,0,1.868,1.868A1.868,1.868,0,0,0,50.868,38Zm0,2.491a.623.623,0,1,1,.623-.623A.623.623,0,0,1,50.868,40.491Z" transform="translate(-19.728 -15.579)" fill="#7525ff" stroke="#7525ff" stroke-width="0.3"></path><path d="M48.816,2H33.868A1.874,1.874,0,0,0,32,3.868v9.965A1.874,1.874,0,0,0,33.868,15.7h4.048L39.6,17.944a.623.623,0,0,0,1,0L42.277,15.7h6.54a1.874,1.874,0,0,0,1.868-1.868V3.868A1.874,1.874,0,0,0,48.816,2Zm.623,11.834a.623.623,0,0,1-.623.623H41.965a.632.632,0,0,0-.5.249L40.1,16.53l-1.37-1.825a.632.632,0,0,0-.5-.249h-4.36a.623.623,0,0,1-.623-.623V3.868a.623.623,0,0,1,.623-.623H48.816a.623.623,0,0,1,.623.623Z" transform="translate(-13.315 -2)" fill="#7525ff" stroke="#7525ff" stroke-width="0.3"></path><path d="M38,8H49.211V9.246H38Z" transform="translate(-15.579 -4.263)" fill="#7525ff" stroke="#7525ff" stroke-width="0.3"></path><path d="M38,12H49.211v1.246H38Z" transform="translate(-15.579 -5.772)" fill="#7525ff" stroke="#7525ff" stroke-width="0.3"></path><path d="M38,16H49.211v1.246H38Z" transform="translate(-15.579 -7.281)" fill="#7525ff" stroke="#7525ff" stroke-width="0.3"></path></g></g></g></svg> 