<?xml version="1.0" encoding="UTF-8"?> <svg xmlns="http://www.w3.org/2000/svg" width="74" height="74" viewBox="0 0 74 74"><g transform="translate(-1059 -2921.523)"><g transform="translate(-295.892 987)" opacity="0.06"><g transform="translate(1354.57 1934.202)"><rect width="74" height="74" rx="37" transform="translate(0.322 0.322)" fill="#7525ff"></rect></g></g><path d="M23.8,1.777,15.54,28.393a1.375,1.375,0,1,1-2.627-.815L21.173.961a1.375,1.375,0,1,1,2.627.816ZM28.934,6.79l7.343,6.884a1.338,1.338,0,0,1,.436.952,1.479,1.479,0,0,1-.436,1.055l-7.343,6.884a1.376,1.376,0,0,1-1.882-2.008l6.27-5.931L27.053,8.8A1.376,1.376,0,0,1,28.934,6.79ZM9.66,8.8,3.39,14.626l6.27,5.931a1.376,1.376,0,1,1-1.882,2.008L.435,15.681A1.493,1.493,0,0,1,0,14.626a1.351,1.351,0,0,1,.435-.952L7.778,6.79A1.376,1.376,0,1,1,9.66,8.8Z" transform="translate(1077.644 2943.847)" fill="#7525ff"></path></g></svg> 