<?xml version="1.0" encoding="UTF-8"?> <svg xmlns="http://www.w3.org/2000/svg" width="74" height="74" viewBox="0 0 74 74"><g transform="translate(-1489 -3245.523)"><g transform="translate(134.108 1311)" opacity="0.06"><g transform="translate(1354.57 1934.202)"><rect width="74" height="74" rx="37" transform="translate(0.322 0.322)" fill="#7525ff"></rect></g></g><g transform="translate(1507.861 3261.012)"><g transform="translate(0 4.011)"><g transform="translate(0 0)"><path d="M35.429,31.64l-2.065-6.01A15.035,15.035,0,0,0,20.113,4.013,15.018,15.018,0,0,0,4.852,18.834,10.944,10.944,0,0,0,1.53,32.281L.108,36.421a1.956,1.956,0,0,0,1.842,2.59A1.969,1.969,0,0,0,2.59,38.9l4.14-1.422a10.99,10.99,0,0,0,4.679,1.056h.017a10.928,10.928,0,0,0,8.836-4.493,15.066,15.066,0,0,0,6.206-1.519l6.01,2.065a2.34,2.34,0,0,0,.761.128,2.325,2.325,0,0,0,2.189-3.078Zm-24,4.781h-.014A8.851,8.851,0,0,1,7.3,35.4a1.059,1.059,0,0,0-.839-.065L2.218,36.793l1.459-4.245a1.058,1.058,0,0,0-.065-.839A8.824,8.824,0,0,1,5.049,21.479a15.077,15.077,0,0,0,12.568,12.4A8.8,8.8,0,0,1,11.426,36.421Zm21.952-3.882a.192.192,0,0,1-.212.049l-6.434-2.211a1.058,1.058,0,0,0-.839.065,12.927,12.927,0,0,1-6,1.49h-.02A12.954,12.954,0,0,1,6.968,19.24,12.9,12.9,0,0,1,20.079,6.129a12.906,12.906,0,0,1,11.2,18.925,1.058,1.058,0,0,0-.065.839l2.211,6.434A.192.192,0,0,1,33.378,32.539Z" transform="translate(0 -4.011)" fill="#7525ff"></path></g></g><g transform="translate(12.507 13.421)"><path d="M193.761,139.512H181.152a1.058,1.058,0,0,0,0,2.116h12.609a1.058,1.058,0,0,0,0-2.116Z" transform="translate(-180.094 -139.512)" fill="#7525ff"></path></g><g transform="translate(12.507 17.774)"><path d="M193.761,202.183H181.152a1.058,1.058,0,1,0,0,2.116h12.609a1.058,1.058,0,0,0,0-2.116Z" transform="translate(-180.094 -202.183)" fill="#7525ff"></path></g><g transform="translate(12.507 22.126)"><path d="M188.907,264.852h-7.755a1.058,1.058,0,1,0,0,2.116h7.755a1.058,1.058,0,0,0,0-2.116Z" transform="translate(-180.093 -264.852)" fill="#7525ff"></path></g></g></g></svg> 