<?xml version="1.0" encoding="UTF-8"?> <svg xmlns="http://www.w3.org/2000/svg" width="74" height="74" viewBox="0 0 74 74"><g transform="translate(-1059 -3247)"><g transform="translate(-295.892 1312)" opacity="0.06"><g transform="translate(1354.57 1934.202)"><rect width="74" height="74" rx="37" transform="translate(0.322 0.798)" fill="#7525ff"></rect></g></g><g transform="translate(1076 3264)"><path d="M39.85,12.77V8.028L38.1,7.6q-.116-.312-.261-.623l.935-1.545L35.42,2.076l-1.544.936q-.311-.145-.623-.261L32.822,1H28.08l-.43,1.751q-.312.116-.623.261l-1.545-.935L22.128,5.43l.935,1.545q-.145.311-.261.623l-1.75.43v4.251H4.133A3.137,3.137,0,0,0,1,15.412V30.451a3.137,3.137,0,0,0,3.133,3.133H9.146V36.09H6.64a1.254,1.254,0,0,0-1.253,1.253V38.6A1.254,1.254,0,0,0,6.64,39.85H39.85V37.344a10.037,10.037,0,0,0-7.237-9.623,5,5,0,0,0,.219-8.163L32.9,19.5l.356-1.448q.312-.116.623-.261l1.545.935,3.354-3.354-.935-1.545q.145-.311.261-.623Zm-35.717.762h21.3a1.882,1.882,0,0,1,1.88,1.88v3.811a5.042,5.042,0,0,0-1.253,1.03V16.039a1.254,1.254,0,0,0-1.253-1.253H4.76a1.254,1.254,0,0,0-1.253,1.253V28.571H2.253V15.412A1.882,1.882,0,0,1,4.133,13.532ZM26.065,10.4a4.411,4.411,0,1,1,2.272,3.833,3.145,3.145,0,0,0-1.719-1.719A4.377,4.377,0,0,1,26.065,10.4Zm6.809,24.419L30.714,38.6h-.065l2.592-9.333c.268.113.528.241.782.38l-.4,2.386L32.2,33.46ZM28.934,38.6l-2.159-3.779.679-1.357L26.023,32.03l-.4-2.386a8.658,8.658,0,0,1,.782-.38L29,38.6ZM22.3,28.571H21.052V18.545H22.3Zm3.76-.515V26.863a5,5,0,0,0,.971.858A9.851,9.851,0,0,0,26.065,28.056Zm-1.253.515H23.558V17.292H19.8V28.571H18.545V19.8h-3.76v8.773H13.532V22.3H9.773v6.266H4.76V16.039H24.811Zm-7.519,0H16.039V21.052h1.253Zm-5.013,0H11.026V23.558h1.253ZM2.253,30.451v-.627H23.215a10.084,10.084,0,0,0-2.06,2.506H4.133A1.882,1.882,0,0,1,2.253,30.451ZM10.4,33.584H20.537a9.921,9.921,0,0,0-.651,2.506H10.4ZM6.64,38.6V37.344H19.8V38.6Zm14.412,0V37.344a8.753,8.753,0,0,1,3.43-6.942l.372,2.23,1.076,1.076-.575,1.149,2.137,3.74H24.185V33.584H22.932V38.6H21.077ZM38.6,37.344V38.6h-1.88V33.584H35.464V38.6H32.157l2.137-3.74-.575-1.149L34.8,32.632l.372-2.23A8.754,8.754,0,0,1,38.6,37.344ZM32.05,28.868l-2.226,8.013L27.6,28.868a8.488,8.488,0,0,1,4.451,0Zm1.534-5.31a3.76,3.76,0,1,1-3.76-3.76A3.763,3.763,0,0,1,33.584,23.558Zm3.609-8.38-1.963,1.963-1.3-.786-.312.162a6.827,6.827,0,0,1-1.081.452l-.336.106-.435,1.773-.066.065a4.916,4.916,0,0,0-3.128-.2V15.7a5.686,5.686,0,1,0-3.424-3.424H22.3V9.011l1.471-.362.106-.336a6.876,6.876,0,0,1,.452-1.081L24.5,6.92l-.786-1.3,1.963-1.963,1.3.786.312-.162a6.827,6.827,0,0,1,1.081-.452l.336-.106.361-1.47h2.777L32.2,3.724l.336.106a6.876,6.876,0,0,1,1.081.452l.312.162,1.3-.786,1.963,1.963-.786,1.3.162.312a6.827,6.827,0,0,1,.452,1.081l.106.336,1.47.361v2.777l-1.471.362-.106.335a6.857,6.857,0,0,1-.452,1.082l-.162.312Z" fill="#7525ff"></path><path d="M46.133,17.266A3.133,3.133,0,1,0,43,14.133,3.137,3.137,0,0,0,46.133,17.266Zm0-5.013a1.88,1.88,0,1,1-1.88,1.88A1.882,1.882,0,0,1,46.133,12.253Z" transform="translate(-15.682 -3.734)" fill="#7525ff"></path><path d="M9,27h1.253v1.253H9Z" transform="translate(-2.987 -9.708)" fill="#7525ff"></path><path d="M13,27h1.253v1.253H13Z" transform="translate(-4.481 -9.708)" fill="#7525ff"></path><path d="M17,27h1.253v1.253H17Z" transform="translate(-5.974 -9.708)" fill="#7525ff"></path><path d="M9,31h6.266v1.253H9Z" transform="translate(-2.987 -11.202)" fill="#7525ff"></path></g></g></svg> 