<?xml version="1.0" encoding="UTF-8"?> <svg xmlns="http://www.w3.org/2000/svg" width="74" height="74" viewBox="0 0 74 74"><g transform="translate(-627 -2922)"><g transform="translate(-727.892 987.477)" opacity="0.06"><g transform="translate(1354.57 1934.202)"><rect width="74" height="74" rx="37" transform="translate(0.322 0.322)" fill="#7525ff"></rect></g></g><g transform="translate(645.755 2940.755)"><path d="M34.2,23.6V3.193A3.2,3.2,0,0,0,31.011,0H7.522A3.2,3.2,0,0,0,4.329,3.193V4.329H3.193a3.193,3.193,0,1,0,0,6.387H4.329v4.258H3.193a3.193,3.193,0,1,0,0,6.387H4.329v4.258H3.193a3.193,3.193,0,1,0,0,6.387H4.329v1.064a3.283,3.283,0,0,0,.919,2.276,3.128,3.128,0,0,0,2.275.988h21.36A7.5,7.5,0,0,0,34.2,23.6ZM3.193,8.587a1.064,1.064,0,0,1,0-2.129h2.2a1.064,1.064,0,0,1,0,2.129Zm0,10.645a1.064,1.064,0,1,1,0-2.129h2.2a1.064,1.064,0,1,1,0,2.129Zm2.2,10.645h-2.2a1.064,1.064,0,0,1,0-2.129h2.2a1.064,1.064,0,0,1,0,2.129ZM7.522,34.2a1.131,1.131,0,0,1-1.064-1.135V31.821a3.193,3.193,0,0,0,0-6.021V21.177a3.193,3.193,0,0,0,0-6.021V10.532a3.193,3.193,0,0,0,0-6.021V3.193A1.066,1.066,0,0,1,7.522,2.129H31.011a1.066,1.066,0,0,1,1.064,1.064V22.08a7.45,7.45,0,0,0-10.645,6.731A7.535,7.535,0,0,0,23.694,34.2Zm21.36,0A5.358,5.358,0,1,1,34.2,28.811,5.364,5.364,0,0,1,28.882,34.2Z" fill="#7525ff"></path><g transform="translate(21.431 8.587)"><path d="M309.451,121h-6.387a1.064,1.064,0,0,0,0,2.129h6.387a1.064,1.064,0,0,0,0-2.129Z" transform="translate(-302 -121)" fill="#7525ff"></path></g><g transform="translate(21.431 17.102)"><path d="M309.451,241h-6.387a1.064,1.064,0,0,0,0,2.129h6.387a1.064,1.064,0,0,0,0-2.129Z" transform="translate(-302 -241)" fill="#7525ff"></path></g><g transform="translate(27.818 25.618)"><path d="M395.193,363.129h-1.064v-1.065a1.064,1.064,0,1,0-2.129,0v2.129a1.065,1.065,0,0,0,1.064,1.065h2.129a1.064,1.064,0,0,0,0-2.129Z" transform="translate(-392 -361)" fill="#7525ff"></path></g><g transform="translate(10.416 6.458)"><path d="M155.286,91.311a1.064,1.064,0,0,0-1.505,0l-3.505,3.505L148.6,93.141a1.064,1.064,0,0,0-1.505,1.505l2.428,2.428a1.064,1.064,0,0,0,1.505,0l4.258-4.258A1.064,1.064,0,0,0,155.286,91.311Z" transform="translate(-146.783 -91)" fill="#7525ff"></path></g><g transform="translate(10.416 14.973)"><path d="M155.286,211.311a1.064,1.064,0,0,0-1.505,0l-3.505,3.505-1.676-1.676a1.064,1.064,0,0,0-1.505,1.505l2.428,2.428a1.064,1.064,0,0,0,1.505,0l4.258-4.258A1.064,1.064,0,0,0,155.286,211.311Z" transform="translate(-146.783 -211)" fill="#7525ff"></path></g><g transform="translate(10.416 23.489)"><path d="M155.286,331.311a1.064,1.064,0,0,0-1.505,0l-3.505,3.505-1.676-1.676a1.064,1.064,0,0,0-1.505,1.505l2.428,2.428a1.064,1.064,0,0,0,1.505,0l4.258-4.258A1.064,1.064,0,0,0,155.286,331.311Z" transform="translate(-146.783 -331)" fill="#7525ff"></path></g></g></g></svg> 